<svg width="76" height="71" viewBox="0 0 76 71" fill="none" xmlns="http://www.w3.org/2000/svg">
<path d="M16.4671 70.6464C7.38524 70.6464 0 63.2611 0 54.1793C0 45.0974 7.38524 37.7122 16.4671 37.7122C25.549 37.7122 32.9342 45.0974 32.9342 54.1793C32.9342 63.311 25.549 70.6464 16.4671 70.6464Z" fill="#00093C"/>
<path d="M16.4671 70.6464C7.38524 70.6464 0 63.2611 0 54.1793C0 45.0974 7.38524 37.7122 16.4671 37.7122C25.549 37.7122 32.9342 45.0974 32.9342 54.1793C32.9342 63.311 25.549 70.6464 16.4671 70.6464Z" fill="#00093C"/>
<path d="M55.3895 1.8336L37.5251 31.0253C37.0261 31.8736 37.575 32.9215 38.5232 32.9215H56.3875H74.2518C75.1999 32.9215 75.7488 31.8237 75.2498 31.0253L57.3855 1.8336C56.8865 1.08509 55.8386 1.08509 55.3895 1.8336Z" fill="#00093C"/>
<path d="M32.5847 6.77396L26.1475 0.336827C25.6984 -0.112276 24.9 -0.112276 24.4509 0.336827L17.3651 7.42267C16.916 7.87177 16.1176 7.87177 15.6685 7.42267L8.58263 0.336827C8.13353 -0.112276 7.33513 -0.112276 6.88602 0.336827L0.448888 6.77396C-0.000215136 7.22307 -0.000215136 8.02147 0.448888 8.47058L7.53472 15.5564C7.98382 16.0055 7.98382 16.8039 7.53472 17.253L0.448888 24.3389C-0.000215136 24.788 -0.000215136 25.5864 0.448888 26.0355L6.88602 32.4726C7.33513 32.9217 8.13353 32.9217 8.58263 32.4726L15.6685 25.3868C16.1176 24.9377 16.916 24.9377 17.3651 25.3868L24.4509 32.4726C24.9 32.9217 25.6984 32.9217 26.1475 32.4726L32.5847 26.0355C33.0338 25.5864 33.0338 24.788 32.5847 24.3389L25.4988 17.253C25.0497 16.8039 25.0497 16.0055 25.4988 15.5564L32.5847 8.47058C33.0837 8.02147 33.0837 7.27297 32.5847 6.77396Z" fill="#00093C"/>
</svg>
